<svg width="48" height="48" viewBox="0 0 48 48" fill="none" xmlns="http://www.w3.org/2000/svg">
<path d="M38.2828 10.0001C41.8194 13.6076 44 18.5491 44 24C44 29.5156 41.7672 34.5098 38.1564 38.128M10 38.283C6.29728 34.653 4 29.5948 4 24C4 18.47 6.24444 13.4641 9.87206 9.84375" stroke="#1C274C" stroke-width="2" stroke-linecap="round" stroke-linejoin="round"/>
<path d="M32.5698 16.0879C34.6916 18.1175 36 20.8976 36 23.9644C36 27.0676 34.6604 29.8772 32.4938 31.9128M15.6 32C13.3784 29.9578 12 27.112 12 23.9644C12 20.8532 13.3467 18.0369 15.5232 16" stroke="#1C274C" stroke-width="2" stroke-linecap="round" stroke-linejoin="round"/>
<path d="M27.3126 20.9022C29.1042 22.2176 30 22.8752 30 24C30 25.1248 29.1042 25.7824 27.3126 27.0978C26.8182 27.4608 26.3276 27.8028 25.8768 28.0876C25.4814 28.3376 25.0336 28.596 24.5698 28.8498C22.7826 29.828 21.8888 30.3172 21.0874 29.7756C20.2858 29.234 20.213 28.1004 20.0674 25.8332C20.0262 25.192 20 24.5634 20 24C20 23.4366 20.0262 22.808 20.0674 22.1668C20.213 19.8995 20.2858 18.7659 21.0874 18.2244C21.8888 17.6829 22.7826 18.172 24.5698 19.1502C25.0336 19.404 25.4814 19.6625 25.8768 19.9124C26.3276 20.1972 26.8182 20.5392 27.3126 20.9022Z" fill="#1C274C" stroke="#1C274C" stroke-width="2"/>
</svg>
