<svg width="48" height="49" viewBox="0 0 48 49" fill="none" xmlns="http://www.w3.org/2000/svg">
<path d="M38.2828 10.2C41.8194 13.8075 44 18.7491 44 24.2C44 29.7156 41.7672 34.7098 38.1564 38.328M10 38.483C6.29728 34.853 4 29.7948 4 24.2C4 18.67 6.24444 13.6641 9.87206 10.0437" stroke="#253053" stroke-width="2" stroke-linecap="round" stroke-linejoin="round"/>
<path d="M32.5698 16.2879C34.6916 18.3175 36 21.0976 36 24.1644C36 27.2676 34.6604 30.0772 32.4938 32.1128M15.6 32.2C13.3784 30.1578 12 27.312 12 24.1644C12 21.0532 13.3467 18.2368 15.5232 16.2" stroke="#253053" stroke-width="2" stroke-linecap="round" stroke-linejoin="round"/>
<path d="M27.3126 21.1022C29.1042 22.4176 30 23.0752 30 24.2C30 25.3248 29.1042 25.9824 27.3126 27.2978C26.8182 27.6608 26.3276 28.0028 25.8768 28.2876C25.4814 28.5376 25.0336 28.796 24.5698 29.0498C22.7826 30.028 21.8888 30.5172 21.0874 29.9756C20.2858 29.434 20.213 28.3004 20.0674 26.0332C20.0262 25.392 20 24.7634 20 24.2C20 23.6366 20.0262 23.008 20.0674 22.3668C20.213 20.0995 20.2858 18.9659 21.0874 18.4244C21.8888 17.8829 22.7826 18.372 24.5698 19.3502C25.0336 19.6039 25.4814 19.8624 25.8768 20.1124C26.3276 20.3972 26.8182 20.7392 27.3126 21.1022Z" stroke="#253053" stroke-width="2"/>
</svg>
